<svg width="129" height="85" viewBox="0 0 129 85" fill="none" xmlns="http://www.w3.org/2000/svg">
<path d="M79.7091 67.3817V70.8266H80.8182V68.533H84.8548V70.8266H85.9631V67.3877L79.7091 67.3817ZM80.6946 66.2673H84.9593C85.5516 66.1501 85.9921 65.6294 86.1163 65.1256H79.5377C79.6607 65.6295 80.1077 66.1501 80.6946 66.2673ZM76.3501 70.8288C76.9093 70.5927 77.2102 70.1842 77.3254 69.7063H72.351L72.3541 65.1285L71.239 65.1316V70.8288H76.3501ZM62.9468 66.2519H66.8854C67.4792 66.0801 67.9777 65.6295 68.0993 65.13H61.8428V68.4968H66.9635V69.6783L62.9468 69.6814C62.3174 69.8563 61.7836 70.2773 61.5173 70.8334L61.8428 70.8274H68.0638V67.3774H62.9468V66.2519ZM53.2239 66.2628H57.4871C58.0802 66.145 58.521 65.6248 58.6446 65.1206H52.0663C52.1891 65.6248 52.6364 66.145 53.2239 66.2628ZM53.2239 68.5144H57.4871C58.0802 68.3979 58.521 67.8772 58.6446 67.3727H52.0663C52.1891 67.8774 52.6364 68.3979 53.2239 68.5144ZM53.2239 70.8282H57.4871C58.0802 70.7107 58.521 70.1902 58.6446 69.6863H52.0663C52.1891 70.1903 52.6364 70.7107 53.2239 70.8282ZM42.1328 65.1344C42.261 65.6323 42.6937 66.1412 43.2875 66.2688H45.0821L45.1736 66.3048V70.8154H46.2942V66.3048L46.396 66.2688H48.1922C48.7926 66.1147 49.216 65.6323 49.342 65.1344V65.1234H42.1328V65.1344Z" fill="#E82127"/>
<path d="M64.1276 53.8641L69.7269 22.4965C75.064 22.4965 76.7474 23.0794 76.9905 25.4589C76.9905 25.4589 80.5708 24.1292 82.3765 21.4285C75.3299 18.176 68.2497 18.0294 68.2497 18.0294L64.1183 23.0417L64.1276 23.0411L59.9962 18.0286C59.9962 18.0286 52.9158 18.1754 45.8701 21.4279C47.6743 24.1285 51.256 25.4583 51.256 25.4583C51.5005 23.0787 53.1819 22.4957 58.4832 22.4919L64.1276 53.8641Z" fill="#E82127"/>
<path d="M64.1252 16.5816C69.8214 16.5382 76.3413 17.4593 83.0157 20.357C83.9078 18.7576 84.1371 18.0508 84.1371 18.0508C76.841 15.1754 70.0083 14.1914 64.1244 14.1667C58.2409 14.1914 51.4085 15.1756 44.1133 18.0508C44.1133 18.0508 44.4387 18.9214 45.2339 20.357C51.9071 17.4593 58.4281 16.5382 64.1244 16.5816H64.1252Z" fill="#E82127"/>
</svg>
